<svg xmlns="http://www.w3.org/2000/svg" width="300" height="217" fill="none"><path fill="#fff" d="M0 0h300v216.8H0z"/><path fill="#EAE1FF" fill-rule="evenodd" d="M193.121 22.552c25.795-5.794 49.694 1.08 62.538 20.714 12.845 19.634 9.485 50.79 6.703 64.542-2.783 13.752-9.841 26.348-18.602 37.283-16.271 20.311-38.26 35.854-62.841 44.244-24.582 8.391-51.271 10.111-76.888 5.866-14.37-2.381-59.321-14.045-69.025-49.246-9.703-35.201-15.844-65.286 5.169-77.508 21.013-12.22 35.567-3.029 45.97 1.491 48.598 21.118 81.18-41.593 106.976-47.386Z" clip-rule="evenodd"/><path fill="#fff" fill-rule="evenodd" d="M229.454 55.522c4.137-.32 8.597-.113 11.969 2.315 3.372 2.427 4.904 7.758 2.135 10.86 3.13-1.228 6.809.855 8.377 3.838 1.568 2.983 1.486 6.557 1.014 9.896a48.456 48.456 0 0 1-9.641 22.806l-.705 2.085c6.044 1.563 29.645 10.76 23.268 33.432-6.377 22.673-34.226 31.302-37.076 34.016-4.969 4.729-12.552 5.053-19.398 4.835a265.038 265.038 0 0 1-50.036-6.401c-1.397-.316-3.166-.508-3.971.679-5.827 8.597-18.012 9.365-28.346 8.617a250.91 250.91 0 0 1-39.428-6.035c-7.35-1.732-15.153-4.144-19.731-10.167-5.338-7.021-4.721-16.756-3.855-25.544-3.508 1.957-9.327 3.017-17.455 3.18-4.786-.979-7.771-2.72-8.956-5.222-5.418-11.442-7.276-26.186-.53-37.464.811-1.355 1.746-2.69 3.066-3.552 1.4-.914 3.105-1.214 4.768-1.362 6.559-.583 13.289.953 18.951 4.326l-.152-55.399c-.002-1.058.012-2.18.574-3.074.813-1.294 2.477-1.695 3.976-1.976a341.616 341.616 0 0 1 41.255-5.153c4.521-.287 10.709.975 10.73 5.522l.237 52.23c.018 4.143.284 3.796 2.218 2.596-1.216.126-.944-1.944-.023-2.75 3.441-3.01 8.455-3.12 13.02-3.074l30.629.315c9.893.102 21.756 1.36 26.234 10.212-.13-2.631 2.246-5.113 4.871-5.09 2.863.027 5.257-2.465 6.092-5.212.836-2.747.467-5.699.091-8.547-4.615-4.484-5.824-12.107-2.822-17.807 3.001-5.7 9.958-8.995 16.251-7.696 4.065.839 8.261.086 12.399-.235Zm-118.471 85.4c-.135 3.666-.279 7.381-1.354 10.886l1.354-10.886Zm-4.23-44.985c.951.28 2.126 1.125 1.628 1.983 4.128.414 2.895.222 3.081-4.659.188-4.953.204-10.43-3.028-14.178-2.859-3.317-7.523-4.355-11.878-4.728a60.74 60.74 0 0 0-15.253.621c-2.455.413-5.114 1.126-6.538 3.174-.798 1.147-1.091 2.562-1.325 3.94a70.961 70.961 0 0 0-.856 16.437c10.584-4.94 22.966-5.88 34.169-2.59Zm91.849 36.391c.258-.262.65-.326 1.015-.376l4.363-.602c-3.338-1.513-5.361-5.106-5.965-8.731-.605-3.624-.015-7.33.581-10.956-2.135 2.384-1.981 5.981-1.701 9.174.612 6.989 1.448 11.753 1.707 11.491Zm-27.461 34.423c.286-.934 1.26-1.435 1.973-2.1 1.283-1.197 1.76-3.006 2.179-4.713 1.446-5.9 2.902-11.871 2.884-17.946-.004-1.287-.069-2.609.355-3.824.425-1.214 1.489-2.313 2.772-2.319 1.353-.006 1.676-1.889 1.555-3.241l-1.251-13.983c-.133-1.488-.269-2.991-.719-4.416-1.665-5.267-8.08-8.452-13.263-6.585-.634.229-.804 1.033-.876 1.706l-2.393 22.366c-.142 1.325 1.563 2.17 2.85 1.842 1.286-.328 2.269-1.337 3.381-2.064 1.113-.727 2.682-1.145 3.703-.294 1.155.961 2.864-.107 3.867-1.227 1.003-1.12 2.309-2.47 3.736-2.003l-5.02 4.819c-.555.532-1.044 1.596-.343 1.911a11.766 11.766 0 0 0 4.986-3.44c.613-.02.641.946.3 1.457-1.289 1.923-4.321 2.352-5.102 4.533-1.822 5.092-7.505 8.474-12.831 7.636-1.093-.172-1.638 1.27-1.769 2.372l-1.573 13.18c-.121 1.011-.233 2.08.181 3.009.692 1.55 2.543 2.136 4.184 2.553 2.169.552 4.362 1.106 6.579 1.346.934.102.93-.241-.345-.575Zm-86.405-8.055c3.099 1.041 6.379 1.394 9.629 1.741 1.378.147 2.846.278 4.082-.35 1.455-.74 2.231-2.343 2.857-3.854a78.104 78.104 0 0 0 5.857-26.604c.053-1.296-1.601-1.868-2.891-1.955-10.297-.693-20.145 3.848-29.47 8.284-.447.213-.926.455-1.147.899-.164.331-.156.719-.144 1.089.168 5.039.378 10.258 2.624 14.768.607 1.218 1.378 2.391 2.47 3.198.662.49 1.42.829 2.17 1.165 1.304.582 2.61 1.164 3.963 1.619Zm66.613-18.649a206.848 206.848 0 0 0 2.896-22.402c.19-2.57.33-5.183-.224-7.7-.554-2.516-1.89-4.963-4.074-6.319-1.345-.836-2.921-1.211-4.479-1.49a44.431 44.431 0 0 0-8.623-.688c-2.548.045-5.223.357-7.303 1.834-.688.489-1.313 1.128-1.564 1.936-.252.807-.04 1.799.658 2.273 1.764 1.198 2.483 3.441 2.813 5.552.331 2.112.41 4.323 1.369 6.231.494.985 1.204 1.843 1.947 2.655a32.721 32.721 0 0 0 15.019 9.293c1.007.288 2.288.912 2.075 1.941 3.167 2.005-.563 7.168-.51 6.884Zm-8.73 21.845c1.167-.711 1.957-1.894 2.654-3.072a43.557 43.557 0 0 0 5.657-16.355c-10.624-.048-21.185-4.07-29.166-11.108-.273 1.1-.22 2.251-.183 3.384a115.634 115.634 0 0 1-1.248 21.163c-.253 1.668.74 3.335 2.105 4.32 1.365.985 3.046 1.408 4.697 1.727a50.089 50.089 0 0 0 11.312.878c1.441-.052 2.941-.186 4.172-.937Zm67.042-61.008c-.619-1.497-1.084-3.186-2.369-4.169-1.285-.983-3.704-.502-3.779 1.117 1.271-.235 2.243 1.34 2.027 2.619-.217 1.279-1.144 2.296-1.88 3.363-1.017 1.473-1.713 3.141-2.401 4.796a25.843 25.843 0 0 0-1.836 12.527c.259 2.498.941 5.063 2.624 6.921 1.683 1.859 4.568 2.788 6.786 1.625 1.904-.999 2.854-3.202 3.291-5.313.437-2.112.515-4.322 1.34-6.313 1.523-3.674 5.277-5.893 8.991-7.287-5.583-.761-10.635-4.664-12.794-9.886Zm-15.439 3.974c.248.963.592 1.901 1.025 2.796a15.56 15.56 0 0 1 1.237-3.648 14.156 14.156 0 0 0-1.71-.092c-.139 0-.286.006-.403.08-.264.168-.227.56-.149.864Zm-67.296-.991c-.352.284-.558.895-.187 1.152l1.705-1.713a.797.797 0 0 0-.472-.282c-.226.392-.695.559-1.046.843Z" clip-rule="evenodd"/><path fill="#FFB61D" d="M225.601 99.776c.997 0 1.806-.988 1.806-2.206s-.809-2.206-1.806-2.206c-.998 0-1.806.988-1.806 2.206s.808 2.206 1.806 2.206ZM212.967 97.57c.444 0 .803-.539.803-1.203 0-.665-.359-1.203-.803-1.203-.443 0-.803.538-.803 1.203 0 .664.36 1.203.803 1.203Z"/><path fill="#E7EAEE" fill-rule="evenodd" d="m98.881 65.917 10.596.068c.165.002.343.007.476.106.273.205.164.684-.116.876-.281.193-.645.185-.982.173a52.864 52.864 0 0 0-9.307.492c-.468.067-.962.137-1.4-.045-.439-.182-.774-.718-.572-1.156.21-.456.811-.517 1.305-.514Zm-11.81-.355c.223.228.116.647-.133.846-.249.2-.582.24-.896.272l-9.394.972c-.37.038-.753.075-1.107-.041-.355-.117-.675-.43-.683-.81-.009-.392.317-.726.68-.85.365-.126.76-.09 1.143-.06 3.208.258 6.448.109 9.62-.442.266-.046.578-.081.77.113Zm-.44-6.142c.235.193.151.606-.084.798-.234.192-.554.224-.853.248l-10.056.81c-.377.031-.767.06-1.122-.072-.355-.13-.666-.469-.646-.854.02-.39.373-.693.745-.786.372-.092.761-.023 1.14.034 3.413.516 6.883.046 10.319-.273.193-.018.407-.03.558.095Zm14.044-2.037c2.099.274 4.226.316 6.333.125.837-.077 1.85-.112 2.326.596-.565.467-1.341.533-2.066.58l-7.208.464c-.548.035-1.231-.007-1.457-.519-.203-.459.154-1.01.612-1.197.458-.186.972-.112 1.46-.049Zm-18.126-2.625c.002.371-.452.531-.812.585l-5.28.79c-.377.057-.766.113-1.135.013-.368-.1-.712-.4-.746-.788-.042-.474.394-.875.849-.978.455-.104.927.005 1.39.065 1.594.21 3.204-.148 4.81-.204.394-.014.921.115.924.517Zm25.48-1.291c.408.046.827.295.937.7-.726.561-1.685.663-2.591.745l-4.654.422-1.639.148c-.4.037-.815.07-1.19-.074-.376-.145-.696-.526-.64-.932.088-.64.91-.805 1.541-.791 2.345.051 4.719.413 7.017-.07.402-.084.81-.195 1.219-.148Zm2.059-6.052c-11.493 1.584-23.277.764-34.613 3.27-.672.148-1.61.156-1.784-.525.016-.8 1.03-1.09 1.812-1.147l33.081-2.411c.647-.047 1.555.153 1.504.813Z" clip-rule="evenodd"/><path fill="#00160A" fill-rule="evenodd" d="M69.443 169.172c.122 1.421-1.83 1.902-3.251 1.908a61.657 61.657 0 0 0-21.675 4.038c-1.054.402-2.182.908-2.695 1.915-.679 1.334.063 3.042 1.264 3.931 1.202.889 2.736 1.16 4.21 1.4a636.52 636.52 0 0 0 115.973 8.185l.624-.014c4.474-.104 9.041-.345 13.14-2.123l-10.181-7.16c5.875-1.177 11.937-.338 17.898.252a212.746 212.746 0 0 0 41.07.082c-.961 1.541-3.074 1.755-4.885 1.794a450.598 450.598 0 0 1-51.462-1.832l6.693 4.42c.809.534 1.703 1.211 1.75 2.181.07 1.458-1.715 2.186-3.15 2.424-4.762.789-9.606.915-14.433.986a656.119 656.119 0 0 1-112.66-8.079c-1.817-.289-3.699-.612-5.214-1.659-1.514-1.047-2.547-3.038-1.91-4.77.633-1.722 2.559-2.531 4.298-3.101a100.767 100.767 0 0 1 24.596-4.778Zm50.813-128.593.236 52.23c.019 4.144.833 9.388 4.826 10.443a33.605 33.605 0 0 1 17.779-2.887c3.458.39 7.049 1.438 9.39 4.022 3.211 3.543 3.216 8.879 2.871 13.656a208.435 208.435 0 0 1-4.116 28.805 5.639 5.639 0 0 1 4.392 1.733c-1.72.79-3.77.822-5.514.089 1.198 6.517-4.094 12.947-10.431 14.814-6.337 1.867-13.215.107-19.174-2.751-.559 2.184 2.353 3.467 4.576 3.797l16.928 2.511a93.68 93.68 0 0 1-20.803-1.703c-1.26 1.79 1.594 3.598 3.75 3.948l17.159 2.786a161.176 161.176 0 0 1-19.327-1.293c4.076 3.689 9.64 5.673 15.122 5.391a14.64 14.64 0 0 1-9.582-.171c3.82 5.134 11.637 6.085 17.346 3.213 5.708-2.871 9.436-8.746 11.259-14.887 1.823-6.141 2-12.631 2.324-19.03.596-11.813 1.736-23.609 3.798-35.254 1.389-7.842 4.8-17.193 12.66-18.3a987.215 987.215 0 0 0-42.04-1.048c-4.26-.016-9.551.684-10.974 4.713-1.216.126-.944-1.944-.023-2.75 3.441-3.01 8.455-3.12 13.02-3.074l30.629.315c9.893.102 21.756 1.36 26.235 10.212-.13-2.631 2.246-5.113 4.871-5.09 2.862.027 5.256-2.465 6.092-5.212.835-2.747.467-5.699.091-8.547-4.616-4.484-5.824-12.107-2.823-17.807.849-1.612 2.104-5.456 9.109-7.93 4.669-1.65 9.286-1.469 13.848.543 8.568-1.662 14.456-1.072 17.663 1.77 4.812 4.265 4.904 7.759 2.135 10.861 3.13-1.228 6.809.855 8.377 3.838 1.568 2.983 1.486 6.557 1.015 9.896a48.468 48.468 0 0 1-9.642 22.806l-.705 2.085c12.37 3.2 22.376 14.17 24.46 26.816-4.112-9.301-9.679-19.151-19.271-22.454-2.165 2.278-4.39 4.656-5.407 7.633-1.016 2.978-.467 6.74 2.111 8.534l-4.857 1.129 1.617 2.877c-6.117 4.666-6.821 13.491-6.784 21.201.037 7.71-.103 16.405-5.677 21.712-4.969 4.729-12.553 5.053-19.398 4.835a265.048 265.048 0 0 1-50.037-6.401c-1.396-.316-3.165-.508-3.971.679-5.826 8.597-18.012 9.365-28.346 8.617a250.926 250.926 0 0 1-39.429-6.035c-7.349-1.732-15.153-4.144-19.731-10.167-5.337-7.021-4.721-16.756-3.855-25.544-5.262 2.936-11.5 4.072-17.455 3.18 6.277-4.118 9.32-11.995 9.378-19.52.057-7.524-2.446-14.818-5.23-21.804-6.137 3.571-9.365 11.098-8.885 18.199.48 7.101 4.235 13.692 9.273 18.703-6.21-3.933-10.32-11.018-10.66-18.379-.34-7.361 3.098-14.797 8.92-19.289-.93-3.192-5.73-3.582-8.245-1.417-2.515 2.166-3.305 5.681-3.952 8.942-1.195 6.027-2.395 12.194-1.527 18.277.869 6.082 4.217 12.171 9.828 14.632-2.622 1.897-6.114-.834-7.856-3.566-7.062-11.082-7.276-26.186-.529-37.464.81-1.355 1.745-2.69 3.065-3.552 1.4-.914 3.105-1.214 4.768-1.362 6.56-.583 13.29.953 18.952 4.326l-.152-55.399c-.003-1.058.012-2.18.574-3.074.812-1.294 2.477-1.695 3.975-1.976a341.623 341.623 0 0 1 41.256-5.153c4.521-.287 10.709.975 10.73 5.522Zm-9.243-4.409a287.597 287.597 0 0 0-43.687 5.439c-.613.124-1.262.27-1.707.71-.607.6-.654 1.55-.662 2.404-.171 18.387-.099 36.777.218 55.163l5.286-1.323c-.689-3.772-1.38-7.596-1.086-11.42.294-3.824 1.693-7.713 4.57-10.239 3.113-2.734 7.458-3.506 11.584-3.797a68.982 68.982 0 0 1 11.919.194c4.04.416 8.295 1.316 11.21 4.154 4.21 4.1 4.278 10.74 4.06 16.622l-1.736 46.845c-.136 3.666-.279 7.381-1.354 10.886-1.076 3.506-3.209 6.838-6.438 8.558-3.168 1.689-6.959 1.641-10.523 1.234a60.73 60.73 0 0 1-10.062-2.021c-1.998-.581-3.998-1.28-5.696-2.486-5.619-3.99-6.283-11.952-6.42-18.858-2.157-.391-4.267 1.257-5.158 3.267-.89 2.01-.851 4.294-.796 6.494.138 5.486.351 11.246 3.142 15.965 4.307 7.282 13.352 9.972 21.61 11.71a307.43 307.43 0 0 0 44.491 6.017c-6.671-3.41-12.587-9.245-13.994-16.624-.382-2.005-.423-4.057-.463-6.097l-2.337-119.693c-.049-2.523-3.458-3.223-5.971-3.104Zm56.877 65.504c-.371.909-.64 1.916-.393 2.866.247.95 1.166 1.779 2.131 1.618 4.322-.723 8.981 1.413 11.266 5.165 1.885 3.095 2.147 6.882 2.359 10.503l1.933 32.986c.207 3.525.309 7.404-1.875 10.173-2.833 3.593-8.152 3.713-12.696 3.267-3.749-.368-7.694-.994-10.605-3.393a6.044 6.044 0 0 1-1.124 3.957c-1.013 1.398.623 3.238 2.215 3.898 1.944.808 4.059 1.089 6.145 1.361a3142.543 3142.543 0 0 0 28.69 3.601c7.365.889 14.848 1.751 22.17.557a47.517 47.517 0 0 1-13.096-5.956c-2.011-1.315-3.955-2.817-5.327-4.794-2.239-3.226-2.711-7.326-3.083-11.24a719.981 719.981 0 0 1-2.473-34.982 48.639 48.639 0 0 0-7.879-24.307c-.845-1.288-1.879-2.624-3.374-2.983-5.942-1.425-12.665 2.031-14.984 7.703Zm-27.248 74.542c.504.086 1.022.2 1.437.499.416.299.706.83.578 1.326-.128.497-.782.824-1.194.521-.456-.334-1.062-.346-1.605-.5-.542-.154-1.112-.606-1.014-1.164.124-.706 1.093-.802 1.798-.682Zm-20.927.21c.625.131 1.357.578 1.229 1.206-.113.554-.796.738-1.354.813-.626.084-1.294.162-1.862-.115-.568-.276-.937-1.054-.564-1.566.251-.345.722-.436 1.147-.454.47-.019.943.02 1.404.116Zm37.415-6.979c-.593.43-1.001 1.063-1.42 1.665a27.196 27.196 0 0 1-7.098 6.999c.069.294.509.22.77.068 3.206-1.864 5.494-4.943 7.69-7.937.179-.245.327-.655.058-.795Zm28.666-74.155c1.71 2.027 3.434 4.072 4.685 6.412 1.357 2.537 2.119 5.349 2.732 8.161 3.433 15.733 2.516 32.09 4.741 48.04.401 2.878.932 5.817 2.424 8.307 1.749 2.918 4.65 4.941 7.606 6.612 2.391 1.352 4.887 2.539 7.512 3.339 4.175 1.273 9.191 1.362 12.392-1.614 1.797-1.671 2.742-4.056 3.481-6.401 3.165-10.049 3.513-20.975.994-31.206.063 6.119.855 12.224.674 18.341-.181 6.116-1.433 12.415-5.016 17.367-.71.981-1.533 1.922-2.605 2.48-1.413.734-3.092.72-4.671.527a23.432 23.432 0 0 1-7.924-2.457c-1.874-.975-3.609-2.199-5.289-3.481-1.953-1.49-3.871-3.096-5.24-5.14-1.356-2.025-2.112-4.391-2.712-6.756-4.379-17.269-1.248-35.897-6.444-52.936-1.224-4.016-3.351-8.325-7.34-9.595ZM81.334 171.263l30.325 4.696c-.256.671-1.18.695-1.89.6l-25.934-3.477-2.932-.393c-.464-.062-1.04-.23-1.099-.696-.082-.657.878-.831 1.53-.73Zm117.262-59.6c-2.135 2.384-1.981 5.981-1.701 9.174l1.836 20.966c.029.327.063.671.254.938.313.435.918.511 1.452.549l21.802 1.541c-.543.862-1.768.875-2.782.797a196.926 196.926 0 0 0-20.571-.515c-.118 3.53.4 7.08 1.523 10.428.486 1.451 2.36 1.76 3.884 1.822l17.439.708c.268.604-.672.982-1.331.974l-17.925-.207c-.818-.009-1.115 1.154-.806 1.915.806 1.988 3.372 2.416 5.507 2.55l13.359.84c.305.019.369.5.146.71-.223.21-.562.216-.868.209l-15.641-.333c4.044 4.83 9.717 8.262 15.861 9.596 1.324.288 2.728.477 4.014.051 1.539-.51 2.674-1.822 3.563-3.182 4.712-7.214 4.399-16.497 3.917-25.109l-.546-9.762a.703.703 0 0 1 .869-.202c.111-.478-.51-.763-.991-.851-10.631-1.96-21.541-3.922-32.181-2.009-.34-.14-.336-.671-.078-.933.259-.262.651-.326 1.015-.376l4.364-.602c-3.338-1.513-5.361-5.106-5.966-8.731-.604-3.624-.014-7.33.582-10.956Zm-52.252 59.343c.947.177 2.04.468 2.41 1.36-1.054.721-2.439.647-3.711.545-.35-.028-.732-.07-.978-.322-.435-.445-.11-1.265.449-1.535.56-.27 1.219-.162 1.83-.048Zm-72.12-6.521a148.54 148.54 0 0 0 33.561 6.456c.883.066 2.07.488 1.9 1.36a335.41 335.41 0 0 1-35.829-6.046c-.754-.169-1.722-.709-1.441-1.431.247-.636 1.161-.543 1.81-.339Zm39.89 5.3c.556-.001 1.093.19 1.613.389.264.1.555.231.657.495.219.564-.556.967-1.149 1.075l-1.198.218c-.337.061-.699.12-1.009-.026-.504-.237-.635-.966-.346-1.443.289-.477.876-.706 1.432-.708Zm51.283-1.205c4.818.92 9.752.972 14.656 1.021.379.004.481.603.21.87-.271.266-.694.278-1.073.27-4.578-.09-9.161-.574-13.725-.213-.497.039-1.013.086-1.479-.089-.467-.176-.865-.649-.776-1.141.076-.424.488-.721.91-.803.422-.082.855.005 1.277.085Zm10.884-75.776c-5.455.817-10.037 5.688-10.536 11.199-.466 5.147-1.882 10.153-2.89 15.221-3.236 16.276-2.254 33.144-5.116 49.491 1.045-1.91 1.327-4.133 1.59-6.295l6.939-57.02c.185-1.517.374-3.052.917-4.48 1.484-3.902 5.321-6.354 9.096-8.116Zm-24.801 73.849c.298.095.602.219.8.461.198.242.248.632.031.857-.163.17-.419.2-.653.221l-2.3.204c-.414.036-.841.072-1.236-.059-.394-.131-.75-.474-.761-.891-.02-.706.848-1.061 1.551-1.107a6.96 6.96 0 0 1 2.568.314Zm16.146-59.029c-.635.229-.804 1.033-.876 1.706l-2.394 22.366c-.142 1.325 1.563 2.17 2.85 1.842 1.287-.328 2.269-1.337 3.382-2.064 1.112-.727 2.681-1.145 3.703-.294 1.154.961 2.864-.107 3.867-1.227 1.003-1.12 2.309-2.47 3.736-2.003l-5.021 4.819c-.555.532-1.044 1.596-.343 1.911a11.766 11.766 0 0 0 4.986-3.44c.613-.02.642.946.3 1.457-1.288 1.923-4.32 2.352-5.101 4.533-1.822 5.092-7.505 8.474-12.832 7.636-1.093-.172-1.637 1.27-1.769 2.372l-1.573 13.18c-.12 1.011-.233 2.08.182 3.009.692 1.55 2.542 2.136 4.183 2.553 3.082.784 6.215 1.573 9.392 1.46 3.178-.112 6.463-1.252 8.475-3.723-.557-.726-1.798.205-2.61-.215-.793-.411-.372-1.779.481-2.048.852-.269 1.752.159 2.543.574.497-.973 1.009-2.015.906-3.104-.102-1.089-1.098-2.166-2.161-1.921-.698.161-.982-1.054-.419-1.498.563-.445 1.371-.301 2.068-.134l.116-7.885c.008-.537.01-1.1-.243-1.572-.254-.472-.855-.803-1.336-.57-.657.317-1.226-.805-.787-1.388.44-.583 1.269-.659 1.997-.684a39.68 39.68 0 0 0-.449-6.981c-2.741 1.378-3.221 5.016-3.497 8.08a97.374 97.374 0 0 1-3.183 17.388c-.356 1.273-.755 2.575-1.586 3.602-.83 1.026-2.198 1.724-3.472 1.39.286-.934 1.259-1.435 1.972-2.1 1.284-1.197 1.76-3.006 2.179-4.713 1.447-5.9 2.902-11.871 2.884-17.946l-.002-.407c-.01-1.157-.022-2.33.358-3.417.425-1.214 1.489-2.313 2.772-2.319 1.352-.006 1.675-1.889 1.554-3.241l-1.251-13.983c-.133-1.488-.269-2.991-.719-4.416-1.664-5.267-8.079-8.452-13.262-6.585Zm20.41 56.846c.635.171 1.252.827.988 1.432-.252.577-1.044.609-1.67.55-.307-.029-.633-.066-.872-.26-.419-.34-.36-1.062.033-1.432.392-.371 1-.431 1.521-.29Zm-76.396-.647c.418.091.853.214 1.154.519.301.306.4.85.101 1.158-.244.251-.638.255-.987.243l-1.507-.053c-.291-.01-.602-.027-.836-.202-.499-.372-.28-1.245.256-1.561.536-.317 1.211-.236 1.819-.104Zm-38.712-4.573c2.813 1.312 5.903 1.885 8.959 2.419a543.444 543.444 0 0 0 18.61 2.921c.87.121 1.834.293 2.364.996-2.408.165-4.816-.238-7.196-.639L72.12 160.98c-.822-.138-1.885-.597-1.724-1.418.19-.974 1.636-.73 2.532-.312Zm48.835-27.893c-.273 1.1-.221 2.251-.183 3.384a115.723 115.723 0 0 1-1.248 21.163c-.253 1.668.74 3.335 2.105 4.32 1.365.985 3.046 1.408 4.697 1.727a50.089 50.089 0 0 0 11.312.878c1.441-.052 2.941-.186 4.173-.937 1.166-.711 1.957-1.894 2.653-3.072a43.557 43.557 0 0 0 5.657-16.355c-10.624-.048-21.185-4.07-29.166-11.108Zm27.788 28.042 2.176.721c.242.08.501.173.645.384.242.357.007.879-.369 1.091-.375.212-.83.2-1.26.183-.783-.031-1.648-.097-2.195-.661-.547-.563-.359-1.779.423-1.83.198-.013.392.05.58.112Zm38.023.106c.432.069.887.149 1.219.433.333.285.469.848.163 1.16-.124.126-.295.191-.461.249-.642.224-1.355.403-1.99.159-.635-.244-1.068-1.086-.669-1.639.367-.507 1.121-.461 1.738-.362ZM74.798 135.958c-.447.213-.925.455-1.146.899-.165.331-.156.719-.144 1.089.167 5.039.378 10.258 2.624 14.768.606 1.218 1.378 2.391 2.47 3.198.662.49 1.42.829 2.17 1.165 1.303.582 2.61 1.164 3.962 1.619 3.1 1.041 6.38 1.394 9.63 1.741 1.377.147 2.845.278 4.081-.35 1.456-.74 2.231-2.343 2.857-3.854a78.057 78.057 0 0 0 5.857-26.604c.053-1.296-1.6-1.868-2.89-1.955-10.297-.693-20.145 3.848-29.471 8.284Zm33.96-6.695c-.264.349-.297.816-.323 1.253a83.435 83.435 0 0 1-7.501 29.888c4.122-2.093 7.193-6.158 8.088-10.705.308-1.563.371-3.163.433-4.756l.588-15.063c.011-.265.012-.556-.155-.761-.278-.338-.865-.204-1.13.144Zm1.707 25.125c.523.028 1.015.246 1.523.373.456.114.593.764.339 1.16-.254.396-.744.568-1.209.633-.485.068-1.006.043-1.423-.215-.418-.258-.688-.795-.522-1.257.179-.495.769-.723 1.292-.694Zm77.409-1.364c.489.102.908.406 1.311.702.219.161.451.341.523.603.091.335-.129.696-.433.863-.303.167-.666.179-1.011.151-.49-.039-.997-.161-1.366-.486-.37-.325-.558-.896-.328-1.332.234-.442.815-.602 1.304-.501ZM71.539 137.425c-.134.239-.107.533-.076.805l.727 6.419c.394 3.484.91 7.238 3.337 9.761.404-.193.176-.803-.079-1.173-1.966-2.846-2.344-6.465-2.663-9.913l-.56-6.063c-.188-.199-.552-.075-.686.164Zm129.395 13.149 20 .496c1.02.025 2.044.051 3.053.203-.21.731-1.169.869-1.928.861-6.685-.063-13.393-.478-20.042.219-.569.06-1.182.119-1.676-.171-.493-.29-.714-1.084-.261-1.433.236-.181.558-.182.854-.175Zm-18.317-1.314c.147.048.297.099.417.197.398.326.25 1.021-.157 1.335-.408.314-.957.35-1.471.363-.535.013-1.158-.029-1.463-.47-.383-.554.072-1.373.705-1.598.633-.225 1.331-.037 1.969.173Zm4.875-1.352a3.958 3.958 0 0 1 1.748.632c.399.265.319.929-.044 1.241-.362.312-.88.355-1.358.338-.483-.017-.987-.091-1.378-.376-.39-.286-.623-.837-.414-1.274.239-.499.897-.62 1.446-.561Zm-67.16-15.266a207.091 207.091 0 0 0-.488 15.777c.002.223.153.539.342.423.402-4.424.599-8.866.59-13.308-.001-.984-.021-2.004-.444-2.892Zm-7.127 13.469c.572.043 1.077.377 1.543.712.143.103.291.214.371.372.167.327-.033.747-.345.939-.312.191-.699.206-1.064.189-.832-.039-1.877-.493-1.784-1.323.064-.572.707-.932 1.279-.889Zm75.671-3.537c.557.23 1.13.828.842 1.359-.194.359-.669.436-1.076.44a7.681 7.681 0 0 1-1.412-.115c-.656-.115-.756-1.149-.247-1.579.508-.43 1.278-.358 1.893-.105Zm64.873-10.273c.229.386.233.86.231 1.309l-.059 9.531c-.002.386-.054.853-.403 1.015-.301.14-.673-.056-.841-.344-.168-.288-.183-.637-.189-.971-.049-2.836.267-5.74-.534-8.461-.238-.808-.523-1.818.1-2.384.486-.443 1.358-.26 1.695.305Zm-81.402-.368c-2.4 1.495-4.925 3.031-7.742 3.235-.513.037-.743.651-.845 1.157a38.91 38.91 0 0 0-.749 6.908c-.002.142-.001.294.081.41.129.184.394.192.619.18 2.198-.115 4.425-.346 6.467-1.171 2.041-.826 3.898-2.322 4.729-4.366.832-2.045.432-4.652-1.266-6.056-.366-.302-.892-.547-1.294-.297Zm-18.374 8.943 2.313.61c.288.076.609.176.746.441.163.313-.026.715-.32.908-.294.193-.659.229-1.008.26-.555.05-1.126.098-1.657-.066-.532-.165-1.022-.595-1.083-1.15-.061-.555.47-1.145 1.009-1.003ZM47.005 98.539c2.886 1.173 5.059 3.71 6.406 6.527 1.347 2.816 1.96 5.922 2.495 9 .885 5.094 1.59 10.294.945 15.424-.645 5.13-2.783 10.246-6.745 13.553 2.886.154 6.332.039 7.9-2.398.703-1.093 2.216-1.577 3.42-1.094-.757-.656-.185-1.879.377-2.71 2.302-3.405 3.881-7.318 4.446-11.393 1.094-7.902-1.657-15.911-5.74-22.757-2.65-4.441-8.83-6.341-13.504-4.152Zm68.429 40.934c.595.235.457 1.222-.1 1.54-.556.317-1.25.174-1.87.016-.29-.074-.597-.16-.793-.386-.459-.526.068-1.416.747-1.573.679-.158 1.368.147 2.016.403Zm21.41-38.025c-2.548.045-5.223.357-7.303 1.834-.688.489-1.313 1.128-1.564 1.936-.252.807-.04 1.799.658 2.273 1.764 1.198 2.483 3.441 2.813 5.552.331 2.112.41 4.323 1.369 6.231.495.985 1.204 1.843 1.947 2.655a32.721 32.721 0 0 0 15.019 9.293c1.007.288 2.288.912 2.075 1.941-8.24-1.734-15.754-6.724-20.565-13.656a23.258 23.258 0 0 1-8.135 11.364c7.39 6.309 16.952 10.006 26.65 10.302.439.014.936-.003 1.232-.329.195-.213.255-.513.308-.797a206.599 206.599 0 0 0 2.896-22.402c.191-2.57.33-5.183-.224-7.7-.553-2.516-1.889-4.963-4.073-6.319-1.346-.836-2.921-1.211-4.479-1.49a44.442 44.442 0 0 0-8.624-.688Zm50.63 36.046c.668 0 1.511.196 1.629.856.116.658-.63 1.148-1.291 1.232-.483.062-1.008.003-1.391-.298-.384-.302-.562-.893-.296-1.302.273-.42.85-.489 1.349-.488Zm49.366-13.208c-1.227 4.766-1.942 9.648-2.656 14.519-.035.242-.056.529.127.691a69.065 69.065 0 0 0 5.245-7.509c.156-.258.309-.596.134-.841l-1.188-1.667c-.294-.412-.596-.955-.338-1.391.21-.354.68-.428 1.089-.466l3.359-.31c-.037-.209-.163-.389-.286-.561-.9-1.256-1.88-2.576-3.32-3.127-.798-.305-1.953-.168-2.166.662ZM81.302 74.976c-2.455.413-5.114 1.126-6.539 3.174-.797 1.147-1.09 2.562-1.325 3.94a70.961 70.961 0 0 0-.855 16.437c10.583-4.94 22.966-5.88 34.169-2.59.95.28 2.126 1.125 1.627 1.983-8.404-3.119-17.764-3.584-26.434-1.314-2.805.735-5.531 1.746-8.32 2.54a55.894 55.894 0 0 1-12.732 2.073c7.84 10.68 8.854 25.973 2.494 37.601 3.957-.751 7.675-2.42 11.323-4.13 5.447-2.555 10.87-5.248 16.657-6.888 5.786-1.639 12.042-2.176 17.781-.378.672.21 1.042-.762 1.069-1.467l1.243-32.696c.189-4.953.205-10.43-3.027-14.178-2.859-3.317-7.523-4.355-11.878-4.728a60.74 60.74 0 0 0-15.253.621Zm75.824 60.685c.161.105.326.238.364.427.076.383-.388.627-.763.733-.544.155-1.105.31-1.667.251-.563-.059-1.135-.384-1.32-.92-.185-.536.187-1.24.752-1.251a4.688 4.688 0 0 1 2.634.76Zm79.829-20.574a10.38 10.38 0 0 1-6.806 1.171c.296.828 1.593 1.117 1.599 1.996.004.535-.498.912-.784 1.364-.22.348-.315.759-.403 1.162a62.916 62.916 0 0 0-1.411 11.522c-.02.667.146 1.549.807 1.621a4.9 4.9 0 0 1 3.446 2.059l1.929-12.184c.15-.942.275-1.995-.275-2.773-.757-1.071-.098-2.538.566-3.669l1.332-2.269Zm-121.897 17.554c.699.14 1.494.746 1.229 1.409-.163.409-.656.575-1.094.598-.438.024-.895-.042-1.305.115-.483.183-1.052-.246-1.111-.761-.059-.515.298-1.015.763-1.241.465-.227 1.011-.221 1.518-.12Zm72.408-.627c.44.061.905.158 1.226.468.32.309.408.898.067 1.184-.113.094-.255.144-.394.192-.605.207-1.253.41-1.874.256-.62-.154-1.16-.815-.945-1.419.247-.697 1.189-.782 1.92-.681Zm40.099-8.349c-.466.113-.806.503-1.114.873l-1.852 2.226c-.362.435.275 1.041.838 1.088.563.048 1.22-.085 1.621.314.419.419.246 1.149-.097 1.632-.344.484-.831.879-1.039 1.434-.311.832.203 1.873 1.05 2.129.46.139 1.106-.075 1.11-.557.024-2.818.188-5.634.492-8.436.051-.478-.542-.816-1.009-.703Zm-93.996 1.399c.355.237.584.616.821.971 2.032 3.054 5.431 5.152 9.064 5.596.84.103 1.832.205 2.253.942-.792.786-2.081.69-3.166.437a17.89 17.89 0 0 1-9.836-6.222c-.393-.494-.752-1.245-.313-1.698.296-.307.822-.262 1.177-.026Zm91.999-13.493c-2.716.67-5.428 1.615-7.629 3.346-2.202 1.731-3.839 4.361-3.822 7.168.022 3.558-1.72 7.085-4.557 9.222l4.776.564c.559.066 1.186.114 1.623-.241.641-.52.477-1.518.315-2.328-.162-.81-.126-1.881.642-2.179.954-.37 1.744.958 1.599 1.974-.144 1.016-.732 1.994-.548 3.003 2.262.322 4.53.593 6.804.814-.452-.373-.502-1.079-.273-1.619.229-.541.673-.954 1.105-1.351.46-.422-.203-1.165-.823-1.232-.62-.067-1.349.082-1.786-.364-.543-.555-.135-1.485.328-2.108.9-1.21 2.015-2.669 1.436-4.062-1.412-3.397-1.102-7.465.81-10.607Zm-104.156-9.283a301.825 301.825 0 0 0 .155 27.914c3.541-1.927 6.128-5.319 7.732-9.027.979-2.262 1.634-4.755 1.243-7.19-.292-1.815-1.148-3.492-2.144-5.036-1.767-2.738-4.074-5.21-6.986-6.661Zm82.101-4.456c1.271-.235 2.243 1.34 2.026 2.619-.216 1.279-1.143 2.296-1.879 3.363-1.017 1.473-1.713 3.141-2.401 4.796a25.843 25.843 0 0 0-1.836 12.527c.259 2.498.941 5.063 2.624 6.921 1.683 1.859 4.568 2.788 6.785 1.625 1.905-.999 2.855-3.202 3.292-5.313.437-2.112.515-4.322 1.34-6.313 1.522-3.674 5.277-5.893 8.991-7.287-5.583-.761-10.635-4.664-12.794-9.886-.62-1.497-1.084-3.186-2.369-4.169-1.285-.983-3.704-.502-3.779 1.117Zm-47.193 29.96c.392.076.777.191 1.148.342.611.249 1.267.939.874 1.471-.214.29-.627.325-.987.334-.657.017-1.366.019-1.903-.361-.536-.381-.722-1.302-.181-1.677.298-.205.694-.177 1.049-.109Zm29.599-1.569c.531.045 1.061.119 1.584.221.26.051.539.121.702.33.247.316.091.811-.221 1.062s-.727.322-1.123.384c-.604.095-1.248.185-1.805-.068-.557-.252-.937-.991-.597-1.5.297-.444.929-.475 1.46-.429Zm-151.956-2.869c-.45-.005-.605.598-.592 1.049.04 1.298.301 2.589.77 3.799.131.133.283-.146.265-.332l-.442-4.516Zm86.513 3.341a.615.615 0 0 0-.219.83l.006.01-.006.007a.75.75 0 0 0-.024.033c-.113.171.046.444.25.429a2.078 2.078 0 0 0-.007-1.309Zm-5.852-1.837c.61.135 1.271.643 1.119 1.25-.1.402-.522.638-.926.728-.403.09-.83.084-1.215.235-.49.191-1.081-.206-1.182-.724-.101-.518.216-1.058.672-1.321.456-.262 1.019-.282 1.532-.168Zm3.526-85.668c.035 27.998.676 55.995 1.922 83.964l.132 2.892.019-.93c.036-2.174.004-4.349-.027-6.523l-1.116-76.454c-.016-1.068-.1-2.282-.93-2.949Zm39.909 81.574c.342.103.685.258.906.539.222.28.286.711.066.994-.212.273-.597.325-.941.355l-1.468.131c-.24.022-.497.039-.706-.082a.758.758 0 0 1-.331-.464c-.154-.567.228-1.183.757-1.436.529-.253 1.156-.206 1.717-.037ZM39.812 98.848c-1.526 1.505-2.32 3.585-3.053 5.602-2.044 5.62-3.987 11.585-2.978 17.482.312.057.46-.369.483-.686a68.178 68.178 0 0 1 3.363-16.729c.693-2.062 1.526-4.156 3.065-5.69-.02-.373-.614-.241-.88.021Zm187.634 12.295c-.267.065-.439.317-.578.554a13.031 13.031 0 0 0-1.748 7.466c.076 1.069.418 2.301 1.413 2.69l2.427-2.338c.128-.123.26-.252.331-.416.177-.41-.076-.867-.309-1.248-1.153-1.882-2.019-4.268-1.059-6.256.12-.248-.211-.518-.477-.452Zm16.809-2.413c-.129.067-.229.179-.325.289a178.998 178.998 0 0 0-6.915 8.342c-.464.595-.948 1.266-.902 2.02.04.671.51 1.254 1.08 1.607.569.353 1.233.513 1.884.669.174.042.364.082.527.009.151-.067.247-.215.334-.356 1.359-2.199 2.738-4.442 3.38-6.948.137-.535.598-.908.968-1.317a4.614 4.614 0 0 0 1.174-2.958c.008-.367-.035-.755-.246-1.054-.212-.3-.635-.473-.959-.303Zm-58.16 10.727c.329.082.692.207.84.513.26.54-.351 1.103-.921 1.28-.443.137-.936.185-1.36-.001-.425-.186-.746-.656-.65-1.111.171-.807 1.293-.879 2.091-.681Zm-70.926-1.178c.155.139.299.304.358.504.119.404-.162.85-.548 1.016-.386.166-.836.102-1.224-.057-.41-.168-.808-.488-.86-.928-.06-.504.395-.967.895-1.04.5-.073 1.003.167 1.379.505Zm44.258-4.427c.399.163.44.769.165 1.102-.275.332-.734.443-1.163.479-.43.037-.874.021-1.275.178-.617.242-1.287-.505-1.14-1.153.146-.647.84-1.05 1.501-1.081.661-.031 1.299.224 1.912.475Zm25.984-.974a4.051 4.051 0 0 1 1.631.434c.219.112.445.266.507.505.129.491-.485.828-.982.924a8.702 8.702 0 0 1-1.336.151c-.554.019-1.221-.088-1.442-.598-.171-.396.038-.881.388-1.131.351-.25.805-.306 1.234-.285Zm36.477-36.26c-3.301.534-6.617.977-9.942 1.328-2.409.254-4.678 1.625-6.028 3.643-.277.415-.468 1.076-.04 1.33a9.233 9.233 0 0 1 4.65-2.885c.641-.165 1.342-.255 1.946.015.604.27 1.036 1.014.763 1.618-.42.928-1.759.669-2.773.607-2.819-.173-5.257 3.065-4.322 5.739.657-2.553 4.289-3.661 6.325-1.995 2.035 1.667 1.786 5.327-.391 6.802-.719.488-1.643.828-1.972 1.634-.281.692-.01 1.473.26 2.169l1.271 3.277c.889 2.29 1.833 4.664 3.632 6.332 1.383 1.283 3.177 2.046 5.007 2.494 6.597 1.613 14.025-.955 18.232-6.304.337-.428 1.106-.022 1.166.521.06.543-.309 1.031-.675 1.435a18.111 18.111 0 0 1-6.873 4.719c-1.236.476-2.705.992-3.085 2.264-.314 1.054.348 2.219 1.298 2.767.951.549 2.109.595 3.199.476a11.964 11.964 0 0 0 6.005-2.438c.524-.407 1.031-.884 1.264-1.507.22-.59.17-1.242.116-1.869l-.046-.54c-.204-2.34-.468-4.707-1.419-6.847-.457-1.029-1.069-1.994-1.406-3.069-.415-1.326-.39-2.748-.669-4.11-.279-1.361-.986-2.775-2.277-3.277.341-.87 1.192-1.417 1.743-2.17.552-.754.632-2.07-.235-2.411-.415-.163-.888-.023-1.283.183-1.667.869-2.566 2.994-2.031 4.8.349 1.179-1.506 1.97-2.506 1.258-.999-.712-1.245-2.068-1.442-3.282-.764-4.704-2.297-9.776-6.301-12.341-.35-.224-.751-.433-1.161-.366ZM114.819 109.99c.526.172 1.051.646.942 1.191-.104.514-.694.755-1.21.844-.731.126-1.685-.018-1.891-.734-.196-.681.515-1.333 1.217-1.408.317-.034.639.009.942.107Zm84.433-9.799c-.491.467-.73 1.133-.953 1.774-.503 1.445-1.013 2.932-.955 4.462.037.985-.533 1.872-.939 2.769-.406.897-.627 2.046.01 2.796 1.522-1.284 1.887-3.445 2.222-5.411.4-2.351.944-4.788 2.459-6.626-.53-.421-1.354-.23-1.844.236Zm-40.098 6.552c.391.126.835.379.84.792.005.502-.611.733-1.103.823l-.74.136c-.629.116-1.303.226-1.888-.033-.584-.26-.973-1.052-.592-1.567.247-.332.701-.423 1.114-.449a6.447 6.447 0 0 1 2.369.298Zm-57.186-7.252c.689.33 1.458.981 1.203 1.703-7.088-1.551-14.662-.784-21.299 2.157-2.986 1.323-5.79 3.073-8.88 4.128-1.058.36-2.212.637-3.28.31-1.069-.327-1.96-1.464-1.647-2.54.293-1.01 1.414-1.49 2.407-1.828a150.73 150.73 0 0 1 14.913-4.222c5.498-1.255 11.497-2.149 16.583.292Zm101.787-.085c-.506-.002-.931.37-1.264.753-.808.929-1.381 2.042-1.808 3.197a15.32 15.32 0 0 0-.927 4.479 109.64 109.64 0 0 1 4.696-7.405c.289-.417-.19-1.022-.697-1.024Zm-8.982 4.508c-.139 0-.285.006-.402.08-.264.168-.228.56-.149.864.248.963.592 1.901 1.024 2.796a15.61 15.61 0 0 1 1.238-3.648 14.173 14.173 0 0 0-1.711-.092Zm-111.081-3.252-12.588 3.882c-.501.155-1.083.394-1.19.909.342.499.991.711 1.594.682.603-.029 1.175-.262 1.734-.491l12.77-5.235c-.76-.213-1.566.021-2.32.253Zm44.279 2.362c-.226.392-.695.559-1.046.843-.352.284-.558.895-.187 1.152l1.705-1.713a.797.797 0 0 0-.472-.282Zm44.272-.304c3.05.319 6.127.482 9.183.218.79-.069 1.735-.101 2.204.541-.592.606-1.523.679-2.367.715l-9.514.409c-.618.026-1.402-.053-1.602-.64-.158-.463.201-.974.652-1.159.451-.186.959-.134 1.444-.084Zm47.153-3.344c.738.901 1.008 2.168.7 3.293-.075.277-.186.55-.363.776-.464.594-1.32.77-2.052.594-.732-.176-1.358-.643-1.917-1.149-.575-.522-1.115-1.116-1.391-1.843-.277-.727-.244-1.611.246-2.214.404-.497 1.056-.736 1.693-.782a3.705 3.705 0 0 1 3.084 1.325Zm-102.817 2.095c.291.236.242.727-.007 1.008-.248.281-.628.401-.991.492-.43.107-.881.191-1.311.088-.431-.102-.834-.437-.887-.878-.077-.64.59-1.14 1.224-1.24a2.54 2.54 0 0 1 1.972.53Zm99.44-1.882c-.323.419-.11 1.177.413 1.249.605.083 1.076.72.979 1.325-.077.475.5.872.958.729.458-.142.723-.657.713-1.138-.011-.481-.239-.929-.499-1.334-.286-.446-.635-.88-1.117-1.096-.483-.217-1.124-.155-1.447.265Zm-1.611-43.113c-4.397.808-8.752 2.735-11.589 6.202-2.836 3.467-3.816 8.656-1.599 12.55.783 1.377 1.979 2.578 3.484 3.062 1.504.484 3.323.128 4.326-1.096 1.138-1.389 3.437-.057 5.15-.584a28.987 28.987 0 0 1 7.309-1.255c.587-.025 1.192-.029 1.74.184.595.232 1.065.696 1.517 1.148 1.568 1.567 3.167 3.18 4.096 5.195 1.471 3.196 1.107 7.093 2.966 10.08l.652-5.618c.08-.695.17-1.417.544-2.007.375-.59 1.123-1.004 1.778-.765 1.156.421 2.36.873 3.189 1.784.83.912 1.137 2.43.339 3.37-.77.907.104 2.219.513 3.338.709 1.94-.124 4.156.433 6.145.462 1.647 1.795 2.877 3.07 4.015.373.333.807.687 1.304.642.416-.038.75-.349 1.034-.657a13.33 13.33 0 0 0 3.302-6.612c.181-.991-.163-2.436-1.158-2.3.272-2.38 2.451-4 3.731-6.022 1.381-2.18 1.707-4.86 1.77-7.442.064-2.595-.189-5.416-1.912-7.352-2.071-2.325-6.095-2.5-8.357-.36-.564.532-1.307 1.237-1.98.851a3832.7 3832.7 0 0 0 1.582-2.847c.859-1.547 1.737-3.15 1.911-4.911.345-3.477-2.292-6.769-5.554-7.991-3.262-1.223-6.945-.716-10.216.48-.82.3-1.789.943-1.567 1.79.129.49.624.786.878 1.225.158.273.143.36-.036.582-.109.134-.303.52-.478.445-1.855-2.156-3.861-4.412-6.581-5.228-1.803-.54-3.74-.382-5.591-.041Zm-21.067 44.457c-.231-.138-.675-.229-.632.038.125.653.711 1.139 1.343 1.339.632.199 1.311.165 1.973.13.259-.014.535-.034.741-.192.172-.132.267-.34.355-.54l.452-1.025c-1.23-.803-2.969 1-4.232.25Zm-35.514-2.23c.517.038 1.031.129 1.53.27.433.121.93.375.952.826.028.593-.741.835-1.331.886l-1.799.156c-.437.038-.932.057-1.253-.242-.432-.403-.257-1.184.21-1.543.467-.36 1.103-.398 1.691-.353Zm14.03-.13a42.79 42.79 0 0 0 8.665.277c.339-.023.708-.043.987.151.279.195.348.696.044.846a.74.74 0 0 1-.302.055l-10.474.396c-.318.013-.669.014-.914-.19-.438-.366-.186-1.15.316-1.42.503-.27 1.112-.19 1.678-.114Zm27.858-2.853c-1.115.06-2.249.164-3.278.598-1.029.434-1.952 1.25-2.26 2.326-.062.219-.085.488.082.642.13.12.326.12.502.114a25.403 25.403 0 0 0 5.487-.824c.891-.235 1.965-.803 1.844-1.72-.063-.482-.478-.86-.936-1.02-.458-.159-.957-.142-1.441-.116Zm-128.591-.135a10.211 10.211 0 0 0-.129 2.87c.23.249.534-.238.514-.578a10.668 10.668 0 0 0-.385-2.292Zm59.621-1.154 19.254.873c.599.027 1.395.258 1.36.858-.766.494-1.754.392-2.659.286a86.1 86.1 0 0 0-17.248-.275c-.496.041-1.022.082-1.464-.146-.442-.228-.727-.836-.44-1.243.251-.357.762-.373 1.197-.353Zm-15.563-.675c.282.042.576.116.781.316.469.456.18 1.322-.384 1.653-.564.33-1.263.284-1.913.227-.714-.061-.946-1.136-.477-1.68s1.284-.624 1.993-.516Zm22.573-2.382 31.38 1.633c.56.03 1.302.245 1.272.807a13.3 13.3 0 0 1-5.222-.1l1.52 1.311c-.725.459-1.497.932-2.353.951-.856.02-1.789-.614-1.765-1.473l1.3-.602a233.289 233.289 0 0 0-25.417-.794c-.489.011-1.011.016-1.425-.247-.413-.264-.622-.903-.28-1.255.245-.25.641-.25.99-.231Zm67.73 1.403c-.376.02-.696.272-.988.512l-1.039.853c-.363.298-.756.653-.777 1.123-.012.255.181.558.429.5a.547.547 0 0 0 .188-.099l2.475-1.751c.168-.12.348-.254.402-.454.1-.365-.313-.705-.69-.684Zm12.832-3.058c.032.851-.389 1.65-.539 2.488-.149.838.136 1.906.962 2.103.244.058.315.407.177.617-.138.21-.398.301-.644.346-.766.14-1.672-.107-2.024-.803-.176-.349-.19-.755-.2-1.145l-.08-3.139c-.018-.715.061-1.595.714-1.884.777-.344 1.601.566 1.634 1.417Zm-11.378 4.745a.45.45 0 0 0-.253.401l-.037.01c.084.187.385.216.503.049.117-.167-.01-.442-.213-.46Zm-1.444-5.467c-.346.009-.733.072-.937.352-.219.3-.131.74.094 1.034.225.296.556.485.865.69a8.013 8.013 0 0 1 2.946 3.558l1.236-1.632c.307-.406.632-.871.567-1.377-.047-.366-.292-.673-.551-.934a5.823 5.823 0 0 0-4.22-1.691ZM72.833 80.581c-.484.04-.735.585-.887 1.048l-.695 2.114c-.253.77-.508 1.548-.578 2.356-.046.535-.01 1.074.027 1.61l.342 5.022c.022.323.267.77.534.587a51.69 51.69 0 0 1 1.257-12.737Zm136.826 6.156c-.439.167-.905.462-.969.93-.063.467.622.9.888.512.339-.497 1.187-.237 1.468.294.28.532.198 1.172.194 1.774-.004.601.134 1.292.656 1.586l.263-2.414c.109-.994.102-2.227-.768-2.713-.521-.29-1.174-.182-1.732.03Zm14.101-.455c.713.032 1.474.281 1.864.88.389.6.183 1.582-.504 1.775-.981.276-1.897-1.11-2.856-.766-.599.215-.969 1.06-1.594.94-.388-.076-.602-.541-.525-.93.077-.388.366-.7.675-.945.825-.656 1.889-1.001 2.94-.954Zm-109.143-.708c.687.111 1.36.866.997 1.462-.101.168-.267.287-.439.378-.429.226-.957.303-1.4.106-.442-.197-.753-.71-.634-1.18.151-.592.875-.864 1.476-.766Zm110.26-3.925c.473.451.842 1.3.312 1.683-.56.405-1.23-.278-1.766-.715a2.764 2.764 0 0 0-2.171-.576c-.486.081-.945.293-1.433.364-.488.072-1.056-.04-1.322-.457-.279-.437-.102-1.056.283-1.403.384-.348.918-.475 1.433-.523a6.049 6.049 0 0 1 4.664 1.627Zm-110.284-1.383c.422.249.649.834.415 1.264-.311.569-1.124.561-1.751.405-.226-.056-.464-.13-.613-.31-.357-.427.043-1.097.541-1.343.439-.217.986-.264 1.408-.016Z" clip-rule="evenodd"/><path fill="#FFB61D" fill-rule="evenodd" d="M57.264 137.47c.05.16.097.34.04.498-.104.282-.44.293-.708.29-1.878-.017-3.624 1.834-3.758 3.982-.014.227-.286.331-.462.226-.176-.105-.266-.332-.327-.549-.343-1.221-.122-2.589.425-3.709.547-1.119 1.393-2.011 2.313-2.742.357-.283.8-.555 1.204-.372.267.12.441.412.587.696.273.534.503 1.097.686 1.68Zm-1.09-.245c-.166-.58-.837-.788-1.338-.583-.501.205-.867.694-1.208 1.162-.323.444-.661.929-.7 1.506.865-1.05 2.013-1.788 3.245-2.085Z" clip-rule="evenodd"/></svg>